<?xml version="1.0" encoding="UTF-8"?>
<!-- Do not edit this file with editors other than draw.io -->
<!DOCTYPE svg PUBLIC "-//W3C//DTD SVG 1.1//EN" "http://www.w3.org/Graphics/SVG/1.1/DTD/svg11.dtd">
<svg xmlns="http://www.w3.org/2000/svg" style="background: transparent; background-color: transparent; color-scheme: light dark;" xmlns:xlink="http://www.w3.org/1999/xlink" version="1.1" width="801px" height="196px" viewBox="0 0 801 196" content="&lt;mxfile host=&quot;app.diagrams.net&quot;&gt;&#10;  &lt;diagram name=&quot;Page-1&quot; id=&quot;iZHyTvR6b2EFZxk5nPFA&quot;&gt;&#10;    &lt;mxGraphModel dx=&quot;880&quot; dy=&quot;575&quot; grid=&quot;1&quot; gridSize=&quot;10&quot; guides=&quot;1&quot; tooltips=&quot;1&quot; connect=&quot;1&quot; arrows=&quot;1&quot; fold=&quot;1&quot; page=&quot;1&quot; pageScale=&quot;1&quot; pageWidth=&quot;850&quot; pageHeight=&quot;1100&quot; math=&quot;0&quot; shadow=&quot;0&quot;&gt;&#10;      &lt;root&gt;&#10;        &lt;mxCell id=&quot;0&quot; /&gt;&#10;        &lt;mxCell id=&quot;1&quot; parent=&quot;0&quot; /&gt;&#10;        &lt;mxCell id=&quot;8wWrhXE_5SoGa8cO_vQa-1&quot; parent=&quot;1&quot; style=&quot;rounded=1;whiteSpace=wrap;html=1;strokeWidth=2;fillWeight=4;hachureGap=8;hachureAngle=45;fillColor=#1ba1e2;sketch=1;&quot; value=&quot;&amp;lt;font style=&amp;quot;background-color: light-dark(#ffffff, var(--ge-dark-color, #121212)); color: rgb(0, 0, 0); font-size: 16px;&amp;quot;&amp;gt;netJeep&amp;lt;/font&amp;gt;&quot; vertex=&quot;1&quot;&gt;&#10;          &lt;mxGeometry height=&quot;60&quot; width=&quot;120&quot; x=&quot;240&quot; y=&quot;210&quot; as=&quot;geometry&quot; /&gt;&#10;        &lt;/mxCell&gt;&#10;        &lt;mxCell id=&quot;8wWrhXE_5SoGa8cO_vQa-2&quot; parent=&quot;1&quot; style=&quot;rounded=1;whiteSpace=wrap;html=1;strokeWidth=2;fillWeight=4;hachureGap=8;hachureAngle=45;fillColor=#1ba1e2;sketch=1;&quot; value=&quot;&amp;lt;meta charset=&amp;quot;utf-8&amp;quot;&amp;gt;&amp;lt;span style=&amp;quot;color: rgb(0, 0, 0); font-family: Helvetica; font-size: 16px; font-style: normal; font-variant-ligatures: normal; font-variant-caps: normal; font-weight: 400; letter-spacing: normal; orphans: 2; text-align: center; text-indent: 0px; text-transform: none; widows: 2; word-spacing: 0px; -webkit-text-stroke-width: 0px; white-space: normal; background-color: rgb(255, 255, 255); text-decoration-thickness: initial; text-decoration-style: initial; text-decoration-color: initial; display: inline !important; float: none;&amp;quot;&amp;gt;netJeep&amp;lt;/span&amp;gt;&quot; vertex=&quot;1&quot;&gt;&#10;          &lt;mxGeometry height=&quot;60&quot; width=&quot;120&quot; x=&quot;480&quot; y=&quot;210&quot; as=&quot;geometry&quot; /&gt;&#10;        &lt;/mxCell&gt;&#10;        &lt;mxCell id=&quot;8wWrhXE_5SoGa8cO_vQa-5&quot; edge=&quot;1&quot; parent=&quot;1&quot; source=&quot;8wWrhXE_5SoGa8cO_vQa-1&quot; style=&quot;endArrow=block;startArrow=block;endFill=1;startFill=1;html=1;rounded=0;exitX=1;exitY=0.5;exitDx=0;exitDy=0;entryX=0;entryY=0.5;entryDx=0;entryDy=0;&quot; target=&quot;8wWrhXE_5SoGa8cO_vQa-2&quot; value=&quot;&quot;&gt;&#10;          &lt;mxGeometry relative=&quot;1&quot; width=&quot;160&quot; as=&quot;geometry&quot;&gt;&#10;            &lt;mxPoint x=&quot;410&quot; y=&quot;340&quot; as=&quot;sourcePoint&quot; /&gt;&#10;            &lt;mxPoint x=&quot;570&quot; y=&quot;340&quot; as=&quot;targetPoint&quot; /&gt;&#10;          &lt;/mxGeometry&gt;&#10;        &lt;/mxCell&gt;&#10;        &lt;mxCell id=&quot;8wWrhXE_5SoGa8cO_vQa-6&quot; edge=&quot;1&quot; parent=&quot;1&quot; style=&quot;endArrow=block;startArrow=block;endFill=1;startFill=1;html=1;rounded=0;exitX=1;exitY=0.5;exitDx=0;exitDy=0;entryX=0;entryY=0.5;entryDx=0;entryDy=0;&quot; value=&quot;&quot;&gt;&#10;          &lt;mxGeometry relative=&quot;1&quot; width=&quot;160&quot; as=&quot;geometry&quot;&gt;&#10;            &lt;mxPoint x=&quot;600&quot; y=&quot;239.5&quot; as=&quot;sourcePoint&quot; /&gt;&#10;            &lt;mxPoint x=&quot;680&quot; y=&quot;239.5&quot; as=&quot;targetPoint&quot; /&gt;&#10;          &lt;/mxGeometry&gt;&#10;        &lt;/mxCell&gt;&#10;        &lt;mxCell id=&quot;8wWrhXE_5SoGa8cO_vQa-7&quot; edge=&quot;1&quot; parent=&quot;1&quot; style=&quot;endArrow=block;startArrow=block;endFill=1;startFill=1;html=1;rounded=0;exitX=1;exitY=0.5;exitDx=0;exitDy=0;entryX=0;entryY=0.5;entryDx=0;entryDy=0;&quot; value=&quot;&quot;&gt;&#10;          &lt;mxGeometry relative=&quot;1&quot; width=&quot;160&quot; as=&quot;geometry&quot;&gt;&#10;            &lt;mxPoint x=&quot;160&quot; y=&quot;239.5&quot; as=&quot;sourcePoint&quot; /&gt;&#10;            &lt;mxPoint x=&quot;240&quot; y=&quot;239.5&quot; as=&quot;targetPoint&quot; /&gt;&#10;          &lt;/mxGeometry&gt;&#10;        &lt;/mxCell&gt;&#10;        &lt;mxCell id=&quot;8wWrhXE_5SoGa8cO_vQa-13&quot; parent=&quot;1&quot; style=&quot;ellipse;shape=cloud;whiteSpace=wrap;html=1;align=center;&quot; value=&quot;Google&amp;lt;div&amp;gt;Youtube&amp;lt;/div&amp;gt;&amp;lt;div&amp;gt;Facebook&amp;lt;/div&amp;gt;&quot; vertex=&quot;1&quot;&gt;&#10;          &lt;mxGeometry height=&quot;195&quot; width=&quot;170&quot; x=&quot;670&quot; y=&quot;100&quot; as=&quot;geometry&quot; /&gt;&#10;        &lt;/mxCell&gt;&#10;        &lt;mxCell id=&quot;8wWrhXE_5SoGa8cO_vQa-14&quot; parent=&quot;1&quot; style=&quot;verticalLabelPosition=bottom;verticalAlign=top;html=1;shape=mxgraph.basic.8_point_star&quot; value=&quot;&quot; vertex=&quot;1&quot;&gt;&#10;          &lt;mxGeometry height=&quot;110&quot; width=&quot;130&quot; x=&quot;360&quot; y=&quot;120&quot; as=&quot;geometry&quot; /&gt;&#10;        &lt;/mxCell&gt;&#10;        &lt;mxCell id=&quot;8wWrhXE_5SoGa8cO_vQa-15&quot; parent=&quot;1&quot; style=&quot;text;html=1;whiteSpace=wrap;strokeColor=none;fillColor=none;align=center;verticalAlign=middle;rounded=0;autosize=1;resizable=0;&quot; value=&quot;sensorship&amp;lt;div&amp;gt;firewall&amp;lt;/div&amp;gt;&amp;lt;div&amp;gt;...&amp;lt;/div&amp;gt;&quot; vertex=&quot;1&quot;&gt;&#10;          &lt;mxGeometry height=&quot;60&quot; width=&quot;80&quot; x=&quot;385&quot; y=&quot;150&quot; as=&quot;geometry&quot; /&gt;&#10;        &lt;/mxCell&gt;&#10;        &lt;mxCell id=&quot;8wWrhXE_5SoGa8cO_vQa-16&quot; parent=&quot;1&quot; style=&quot;label;whiteSpace=wrap;html=1;align=center;verticalAlign=bottom;spacingLeft=0;spacingBottom=4;imageAlign=center;imageVerticalAlign=top;image=img/clipart/Gear_128x128.png&quot; value=&quot;&amp;lt;span style=&amp;quot;font-weight: normal;&amp;quot;&amp;gt;Your PC&amp;lt;/span&amp;gt;&quot; vertex=&quot;1&quot;&gt;&#10;          &lt;mxGeometry height=&quot;160&quot; width=&quot;120&quot; x=&quot;40&quot; y=&quot;120&quot; as=&quot;geometry&quot; /&gt;&#10;        &lt;/mxCell&gt;&#10;        &lt;mxCell id=&quot;8wWrhXE_5SoGa8cO_vQa-17&quot; edge=&quot;1&quot; parent=&quot;1&quot; source=&quot;8wWrhXE_5SoGa8cO_vQa-16&quot; style=&quot;endArrow=block;startArrow=block;endFill=1;startFill=1;html=1;rounded=0;exitX=1;exitY=0.25;exitDx=0;exitDy=0;entryX=0.031;entryY=0.359;entryDx=0;entryDy=0;entryPerimeter=0;&quot; target=&quot;8wWrhXE_5SoGa8cO_vQa-14&quot; value=&quot;&quot;&gt;&#10;          &lt;mxGeometry relative=&quot;1&quot; width=&quot;160&quot; as=&quot;geometry&quot;&gt;&#10;            &lt;mxPoint x=&quot;240&quot; y=&quot;160&quot; as=&quot;sourcePoint&quot; /&gt;&#10;            &lt;mxPoint x=&quot;320&quot; y=&quot;160&quot; as=&quot;targetPoint&quot; /&gt;&#10;          &lt;/mxGeometry&gt;&#10;        &lt;/mxCell&gt;&#10;      &lt;/root&gt;&#10;    &lt;/mxGraphModel&gt;&#10;  &lt;/diagram&gt;&#10;&lt;/mxfile&gt;&#10;"><defs/><g><g data-cell-id="0"><g data-cell-id="1"><g data-cell-id="8wWrhXE_5SoGa8cO_vQa-1"><g><rect x="200" y="110" width="120" height="60" rx="9" ry="9" fill="none" stroke="none" pointer-events="all"/><path d="M 201.92 167.42 C 201.92 167.42 201.92 167.42 201.92 167.42 M 201.92 167.42 C 201.92 167.42 201.92 167.42 201.92 167.42 M 215.36 169.54 C 209.86 163.2 205.35 161.64 200.51 154.69 M 215.36 169.54 C 212.12 165.75 208.72 162.79 200.51 154.69 M 226.67 169.54 C 215.29 157.52 206 149.42 200.51 143.38 M 226.67 169.54 C 220.33 164.38 215.43 159.88 200.51 143.38 M 237.98 169.54 C 224.06 153.47 210.57 140.61 200.51 132.07 M 237.98 169.54 C 228.9 159.3 219.96 151.05 200.51 132.07 M 249.3 169.54 C 229.09 149.27 208.29 130.05 200.51 120.75 M 249.3 169.54 C 231.32 151.08 212.68 131.86 200.51 120.75 M 260.61 169.54 C 238.18 148.71 214.28 126.99 202.63 111.56 M 260.61 169.54 C 247.72 157.2 234.68 142.97 202.63 111.56 M 271.92 169.54 C 260.04 157.15 246.82 142.38 211.82 109.44 M 271.92 169.54 C 250.1 148.61 228.36 125.99 211.82 109.44 M 283.24 169.54 C 265.71 149.56 244.39 132.55 223.84 110.15 M 283.24 169.54 C 263.24 150.45 244.84 132.74 223.84 110.15 M 294.55 169.54 C 275.4 148.67 257.12 129.93 235.16 110.15 M 294.55 169.54 C 271.39 146 249.25 123.78 235.16 110.15 M 305.87 169.54 C 286.91 153.05 269.8 137.71 246.47 110.15 M 305.87 169.54 C 293.85 156.47 279.7 143.55 246.47 110.15 M 315.77 168.13 C 301.59 155.46 290.31 142.72 257.78 110.15 M 315.77 168.13 C 302.5 155.21 290.56 142.46 257.78 110.15 M 319.3 160.35 C 305.28 146.4 293.51 133.87 269.1 110.15 M 319.3 160.35 C 303.89 145.02 287.56 129.02 269.1 110.15 M 320.01 149.74 C 305.81 132.74 289.26 119.37 280.41 110.15 M 320.01 149.74 C 305.1 133.96 288.91 119.11 280.41 110.15 M 320.01 138.43 C 312.72 131.96 305.41 124.13 291.72 110.15 M 320.01 138.43 C 311.11 129.99 302.17 121.93 291.72 110.15 M 320.01 127.12 C 312.15 121.9 309.19 114.12 303.04 110.15 M 320.01 127.12 C 317.27 122.65 312.63 119.75 303.04 110.15 M 318.59 114.39 C 316.78 112.7 315.73 111.4 314.35 110.15 M 318.59 114.39 C 317.84 113.52 316.79 112.69 314.35 110.15" fill="none" stroke="#1ba1e2" stroke-width="4" stroke-linejoin="round" stroke-linecap="round" stroke-miterlimit="10" pointer-events="all" style="stroke: light-dark(rgb(27, 161, 226), rgb(25, 140, 196));"/><path d="M 209 110 C 239.92 110.45 269.06 108.9 311 110 M 209 110 C 234.72 109.15 261.84 109.15 311 110 M 311 110 C 317.68 109.84 321.63 112.66 320 119 M 311 110 C 315.42 109.8 321.27 115.09 320 119 M 320 119 C 321.02 128.32 319.74 139.95 320 161 M 320 119 C 319.13 131.56 319.28 144.62 320 161 M 320 161 C 320.49 165.3 317.37 171.9 311 170 M 320 161 C 318.24 166.17 318.23 172.01 311 170 M 311 170 C 279.24 170.59 249.24 170.41 209 170 M 311 170 C 278.81 171.38 247.77 171.16 209 170 M 209 170 C 204.83 169.61 198.49 168.89 200 161 M 209 170 C 203.07 171.23 200.83 167.27 200 161 M 200 161 C 198.9 149.88 198.91 139.79 200 119 M 200 161 C 200.71 146.41 199.63 133.04 200 119 M 200 119 C 199.36 113.31 201.9 109.32 209 110 M 200 119 C 197.99 112.27 203.66 109.1 209 110" fill="none" stroke="#000000" stroke-width="2" stroke-linejoin="round" stroke-linecap="round" stroke-miterlimit="10" pointer-events="all" style="stroke: light-dark(rgb(0, 0, 0), rgb(255, 255, 255));"/></g><g><g><switch><foreignObject style="overflow: visible; text-align: left;" pointer-events="none" width="100%" height="100%" requiredFeatures="http://www.w3.org/TR/SVG11/feature#Extensibility"><div xmlns="http://www.w3.org/1999/xhtml" style="display: flex; align-items: unsafe center; justify-content: unsafe center; width: 118px; height: 1px; padding-top: 140px; margin-left: 201px;"><div style="box-sizing: border-box; font-size: 0; text-align: center; color: #000000; "><div style="display: inline-block; font-size: 12px; font-family: Helvetica; color: light-dark(#000000, #ffffff); line-height: 1.2; pointer-events: all; white-space: normal; word-wrap: normal; "><font style="background-color: light-dark(#ffffff, var(--ge-dark-color, #121212)); color: light-dark(rgb(0, 0, 0), rgb(237, 237, 237)); font-size: 16px;">netJeep</font></div></div></div></foreignObject><text x="260" y="144" fill="light-dark(#000000, #ffffff)" font-family="Helvetica" font-size="12px" text-anchor="middle">netJeep</text></switch></g></g></g><g data-cell-id="8wWrhXE_5SoGa8cO_vQa-2"><g><rect x="440" y="110" width="120" height="60" rx="9" ry="9" fill="none" stroke="none" pointer-events="all"/><path d="M 442.13 167.63 C 442.13 167.63 442.13 167.63 442.13 167.63 M 442.13 167.63 C 442.13 167.63 442.13 167.63 442.13 167.63 M 454.86 169.04 C 448.77 165.19 445.45 159.37 440.72 154.9 M 454.86 169.04 C 450.77 164.74 444.15 159.69 440.72 154.9 M 466.88 169.75 C 459.55 163.15 457.01 160.1 440.72 143.59 M 466.88 169.75 C 459.34 163.01 454.33 156.7 440.72 143.59 M 478.19 169.75 C 469.37 158.66 455.58 148.75 440.72 132.27 M 478.19 169.75 C 463.08 155.67 448.51 139.93 440.72 132.27 M 489.51 169.75 C 477.34 155.33 462.75 143.84 440.72 120.96 M 489.51 169.75 C 473.7 153.4 459.62 138.33 440.72 120.96 M 500.82 169.75 C 481.53 154.14 463.26 134.27 442.84 111.77 M 500.82 169.75 C 482.88 151.82 465.88 134.79 442.84 111.77 M 512.13 169.75 C 492.97 150.75 474.52 132 452.03 109.65 M 512.13 169.75 C 492.53 149.67 473.49 130.69 452.03 109.65 M 523.45 169.75 C 501.05 147.58 481.95 126.22 463.34 109.65 M 523.45 169.75 C 504.03 150.82 484.57 130.54 463.34 109.65 M 534.76 169.75 C 514.73 147.22 490.36 126.83 474.66 109.65 M 534.76 169.75 C 511.56 147.5 489.95 124.87 474.66 109.65 M 546.07 169.75 C 526.8 147.66 507.43 130.91 485.97 109.65 M 546.07 169.75 C 526.52 149.1 506.24 129.45 485.97 109.65 M 555.97 168.34 C 537.64 153.19 522.3 136.46 497.28 109.65 M 555.97 168.34 C 538.28 150.81 521.19 134.68 497.28 109.65 M 559.51 160.56 C 548.1 146.72 534.2 134.5 509.3 110.35 M 559.51 160.56 C 543.66 144.06 527.19 126.02 509.3 110.35 M 559.51 149.24 C 550.19 139.24 539.29 126.64 520.62 110.35 M 559.51 149.24 C 545.05 135.41 531.88 121.36 520.62 110.35 M 560.22 138.64 C 550.13 126.56 537.11 117.2 531.93 110.35 M 560.22 138.64 C 550.01 127.7 538.34 116.8 531.93 110.35 M 560.22 127.32 C 554.81 120.54 548.66 116.1 543.25 110.35 M 560.22 127.32 C 557.14 122.83 552.16 120.51 543.25 110.35 M 558.8 114.6 C 558.12 113.73 557.04 113.01 554.56 110.35 M 558.8 114.6 C 557.78 113.33 556.7 112.79 554.56 110.35" fill="none" stroke="#1ba1e2" stroke-width="4" stroke-linejoin="round" stroke-linecap="round" stroke-miterlimit="10" pointer-events="all" style="stroke: light-dark(rgb(27, 161, 226), rgb(25, 140, 196));"/><path d="M 449 110 C 478.78 108.18 510.74 110.84 551 110 M 449 110 C 483.26 110.79 515.3 112.01 551 110 M 551 110 C 558.38 108.37 560.51 112.29 560 119 M 551 110 C 557.91 108.06 562.24 114.52 560 119 M 560 119 C 560.78 129.3 559.07 140.65 560 161 M 560 119 C 559.77 131.81 560.67 142.15 560 161 M 560 161 C 559.09 165.7 555.86 168.18 551 170 M 560 161 C 558.85 168.53 556.86 170.52 551 170 M 551 170 C 520.7 172.37 489.07 172.21 449 170 M 551 170 C 518 171.06 485.3 170.19 449 170 M 449 170 C 444.95 171.32 440.32 167.42 440 161 M 449 170 C 442.6 168.92 440.69 165.06 440 161 M 440 161 C 440.3 147.95 438.29 132.97 440 119 M 440 161 C 440.65 151.24 440.78 143.74 440 119 M 440 119 C 441.8 113.31 442.34 110.02 449 110 M 440 119 C 439.67 112.5 442.37 109.07 449 110" fill="none" stroke="#000000" stroke-width="2" stroke-linejoin="round" stroke-linecap="round" stroke-miterlimit="10" pointer-events="all" style="stroke: light-dark(rgb(0, 0, 0), rgb(255, 255, 255));"/></g><g><g><switch><foreignObject style="overflow: visible; text-align: left;" pointer-events="none" width="100%" height="100%" requiredFeatures="http://www.w3.org/TR/SVG11/feature#Extensibility"><div xmlns="http://www.w3.org/1999/xhtml" style="display: flex; align-items: unsafe center; justify-content: unsafe center; width: 118px; height: 1px; padding-top: 140px; margin-left: 441px;"><div style="box-sizing: border-box; font-size: 0; text-align: center; color: #000000; "><div style="display: inline-block; font-size: 12px; font-family: Helvetica; color: light-dark(#000000, #ffffff); line-height: 1.2; pointer-events: all; white-space: normal; word-wrap: normal; "><span style="color: light-dark(rgb(0, 0, 0), rgb(237, 237, 237)); font-family: Helvetica; font-size: 16px; font-style: normal; font-variant-ligatures: normal; font-variant-caps: normal; font-weight: 400; letter-spacing: normal; orphans: 2; text-align: center; text-indent: 0px; text-transform: none; widows: 2; word-spacing: 0px; -webkit-text-stroke-width: 0px; white-space: normal; background-color: light-dark(rgb(255, 255, 255), rgb(18, 18, 18)); text-decoration-thickness: initial; text-decoration-style: initial; text-decoration-color: initial; float: none; display: inline !important;">netJeep</span></div></div></div></foreignObject><text x="500" y="144" fill="light-dark(#000000, #ffffff)" font-family="Helvetica" font-size="12px" text-anchor="middle">netJeep</text></switch></g></g></g><g data-cell-id="8wWrhXE_5SoGa8cO_vQa-5"><g transform="translate(0.5,0.5)"><path d="M 328.12 140 L 431.88 140" fill="none" stroke="#000000" stroke-miterlimit="10" pointer-events="stroke" style="stroke: light-dark(rgb(0, 0, 0), rgb(255, 255, 255));"/><path d="M 321.12 140 L 328.12 136.5 L 328.12 143.5 Z" fill="#000000" stroke="#000000" stroke-miterlimit="10" pointer-events="all" style="fill: light-dark(rgb(0, 0, 0), rgb(255, 255, 255)); stroke: light-dark(rgb(0, 0, 0), rgb(255, 255, 255));"/><path d="M 438.88 140 L 431.88 143.5 L 431.88 136.5 Z" fill="#000000" stroke="#000000" stroke-miterlimit="10" pointer-events="all" style="fill: light-dark(rgb(0, 0, 0), rgb(255, 255, 255)); stroke: light-dark(rgb(0, 0, 0), rgb(255, 255, 255));"/></g></g><g data-cell-id="8wWrhXE_5SoGa8cO_vQa-6"><g transform="translate(0.5,0.5)"><path d="M 568.12 139.5 L 631.88 139.5" fill="none" stroke="#000000" stroke-miterlimit="10" pointer-events="stroke" style="stroke: light-dark(rgb(0, 0, 0), rgb(255, 255, 255));"/><path d="M 561.12 139.5 L 568.12 136 L 568.12 143 Z" fill="#000000" stroke="#000000" stroke-miterlimit="10" pointer-events="all" style="fill: light-dark(rgb(0, 0, 0), rgb(255, 255, 255)); stroke: light-dark(rgb(0, 0, 0), rgb(255, 255, 255));"/><path d="M 638.88 139.5 L 631.88 143 L 631.88 136 Z" fill="#000000" stroke="#000000" stroke-miterlimit="10" pointer-events="all" style="fill: light-dark(rgb(0, 0, 0), rgb(255, 255, 255)); stroke: light-dark(rgb(0, 0, 0), rgb(255, 255, 255));"/></g></g><g data-cell-id="8wWrhXE_5SoGa8cO_vQa-7"><g transform="translate(0.5,0.5)"><path d="M 128.12 139.5 L 191.88 139.5" fill="none" stroke="#000000" stroke-miterlimit="10" pointer-events="stroke" style="stroke: light-dark(rgb(0, 0, 0), rgb(255, 255, 255));"/><path d="M 121.12 139.5 L 128.12 136 L 128.12 143 Z" fill="#000000" stroke="#000000" stroke-miterlimit="10" pointer-events="all" style="fill: light-dark(rgb(0, 0, 0), rgb(255, 255, 255)); stroke: light-dark(rgb(0, 0, 0), rgb(255, 255, 255));"/><path d="M 198.88 139.5 L 191.88 143 L 191.88 136 Z" fill="#000000" stroke="#000000" stroke-miterlimit="10" pointer-events="all" style="fill: light-dark(rgb(0, 0, 0), rgb(255, 255, 255)); stroke: light-dark(rgb(0, 0, 0), rgb(255, 255, 255));"/></g></g><g data-cell-id="8wWrhXE_5SoGa8cO_vQa-13"><g transform="translate(0.5,0.5)"><path d="M 672.5 48.75 C 638.5 48.75 630 97.5 657.2 107.25 C 630 128.7 660.6 175.5 682.7 156 C 698 195 749 195 766 156 C 800 156 800 117 778.75 97.5 C 800 58.5 766 19.5 736.25 39 C 715 9.75 681 9.75 672.5 48.75 Z" fill="#ffffff" stroke="#000000" stroke-miterlimit="10" pointer-events="all" style="fill: light-dark(#ffffff, var(--ge-dark-color, #121212)); stroke: light-dark(rgb(0, 0, 0), rgb(255, 255, 255));"/></g><g><g><switch><foreignObject style="overflow: visible; text-align: left;" pointer-events="none" width="100%" height="100%" requiredFeatures="http://www.w3.org/TR/SVG11/feature#Extensibility"><div xmlns="http://www.w3.org/1999/xhtml" style="display: flex; align-items: unsafe center; justify-content: unsafe center; width: 168px; height: 1px; padding-top: 98px; margin-left: 631px;"><div style="box-sizing: border-box; font-size: 0; text-align: center; color: #000000; "><div style="display: inline-block; font-size: 12px; font-family: Helvetica; color: light-dark(#000000, #ffffff); line-height: 1.2; pointer-events: all; white-space: normal; word-wrap: normal; ">Google<div>Youtube</div><div>Facebook</div></div></div></div></foreignObject><text x="715" y="101" fill="light-dark(#000000, #ffffff)" font-family="Helvetica" font-size="12px" text-anchor="middle">Google...</text></switch></g></g></g><g data-cell-id="8wWrhXE_5SoGa8cO_vQa-14"><g transform="translate(0.5,0.5)"><path d="M 357.92 52.08 L 357.92 20 L 385 42.92 L 412.08 20 L 412.08 52.08 L 450 52.08 L 422.92 75 L 450 97.92 L 412.08 97.92 L 412.08 130 L 385 107.08 L 357.92 130 L 357.92 97.92 L 320 97.92 L 347.08 75 L 320 52.08 Z" fill="#ffffff" stroke="#000000" stroke-miterlimit="10" pointer-events="all" style="fill: light-dark(#ffffff, var(--ge-dark-color, #121212)); stroke: light-dark(rgb(0, 0, 0), rgb(255, 255, 255));"/></g></g><g data-cell-id="8wWrhXE_5SoGa8cO_vQa-15"><g transform="translate(0.5,0.5)"><rect x="345" y="50" width="80" height="60" fill="none" stroke="none" pointer-events="all"/></g><g><g><switch><foreignObject style="overflow: visible; text-align: left;" pointer-events="none" width="100%" height="100%" requiredFeatures="http://www.w3.org/TR/SVG11/feature#Extensibility"><div xmlns="http://www.w3.org/1999/xhtml" style="display: flex; align-items: unsafe center; justify-content: unsafe center; width: 78px; height: 1px; padding-top: 80px; margin-left: 346px;"><div style="box-sizing: border-box; font-size: 0; text-align: center; color: #000000; "><div style="display: inline-block; font-size: 12px; font-family: Helvetica; color: light-dark(#000000, #ffffff); line-height: 1.2; pointer-events: all; white-space: normal; word-wrap: normal; ">sensorship<div>firewall</div><div>...</div></div></div></div></foreignObject><text x="385" y="84" fill="light-dark(#000000, #ffffff)" font-family="Helvetica" font-size="12px" text-anchor="middle">sensorship...</text></switch></g></g></g><g data-cell-id="8wWrhXE_5SoGa8cO_vQa-16"><g transform="translate(0.5,0.5)"><rect x="0" y="20" width="120" height="160" rx="18" ry="18" fill="#ffffff" stroke="#000000" pointer-events="all" style="fill: light-dark(#ffffff, var(--ge-dark-color, #121212)); stroke: light-dark(rgb(0, 0, 0), rgb(255, 255, 255));"/><image x="39" y="27" width="42" height="42" xlink:href="https://app.diagrams.net/img/clipart/Gear_128x128.png" preserveAspectRatio="none"/></g><g><g><switch><foreignObject style="overflow: visible; text-align: left;" pointer-events="none" width="100%" height="100%" requiredFeatures="http://www.w3.org/TR/SVG11/feature#Extensibility"><div xmlns="http://www.w3.org/1999/xhtml" style="display: flex; align-items: unsafe flex-end; justify-content: unsafe center; width: 118px; height: 1px; padding-top: 173px; margin-left: 1px;"><div style="box-sizing: border-box; font-size: 0; text-align: center; color: #000000; "><div style="display: inline-block; font-size: 12px; font-family: Helvetica; color: light-dark(#000000, #ffffff); line-height: 1.2; pointer-events: all; font-weight: bold; white-space: normal; word-wrap: normal; "><span style="font-weight: normal;">Your PC</span></div></div></div></foreignObject><text x="60" y="173" fill="light-dark(#000000, #ffffff)" font-family="Helvetica" font-size="12px" text-anchor="middle" font-weight="bold">Your PC</text></switch></g></g></g><g data-cell-id="8wWrhXE_5SoGa8cO_vQa-17"><g transform="translate(0.5,0.5)"><path d="M 128.12 59.98 L 315.91 59.51" fill="none" stroke="#000000" stroke-miterlimit="10" pointer-events="stroke" style="stroke: light-dark(rgb(0, 0, 0), rgb(255, 255, 255));"/><path d="M 121.12 60 L 128.11 56.48 L 128.13 63.48 Z" fill="#000000" stroke="#000000" stroke-miterlimit="10" pointer-events="all" style="fill: light-dark(rgb(0, 0, 0), rgb(255, 255, 255)); stroke: light-dark(rgb(0, 0, 0), rgb(255, 255, 255));"/><path d="M 322.91 59.49 L 315.92 63.01 L 315.9 56.01 Z" fill="#000000" stroke="#000000" stroke-miterlimit="10" pointer-events="all" style="fill: light-dark(rgb(0, 0, 0), rgb(255, 255, 255)); stroke: light-dark(rgb(0, 0, 0), rgb(255, 255, 255));"/></g></g></g></g></g><switch><g requiredFeatures="http://www.w3.org/TR/SVG11/feature#Extensibility"/><a transform="translate(0,-5)" xlink:href="https://www.drawio.com/doc/faq/svg-export-text-problems" target="_blank"><text text-anchor="middle" font-size="10px" x="50%" y="100%">Text is not SVG - cannot display</text></a></switch></svg>